<?xml version="1.0" standalone="no"?>
<!DOCTYPE svg PUBLIC "-//W3C//DTD SVG 20010904//EN"
 "http://www.w3.org/TR/2001/REC-SVG-20010904/DTD/svg10.dtd">
<svg version="1.0" xmlns="http://www.w3.org/2000/svg"
 width="50pt" height="40t" viewBox="0 0 1166.000000 846.000000"
 preserveAspectRatio="xMidYMid meet">

<g transform="translate(0.000000,846.000000) scale(0.100000,-0.100000)"
fill="#70743c" stroke="none">
<path d="M3561 8209 c-18 -6 -74 -41 -125 -79 -278 -208 -535 -516 -721 -866
-100 -187 -215 -534 -252 -759 -11 -69 -30 -69 -102 -3 -79 74 -273 218 -346
259 -159 88 -352 168 -505 209 -25 7 -63 18 -85 26 -62 21 -179 42 -301 55
-109 11 -113 11 -160 -13 -70 -34 -92 -82 -104 -229 -6 -63 -15 -172 -21 -244
-10 -118 -6 -505 5 -524 3 -4 8 -48 11 -97 11 -174 84 -575 130 -724 8 -25 23
-79 34 -120 11 -41 34 -113 51 -160 17 -47 35 -96 39 -110 17 -51 130 -308
170 -387 58 -117 53 -140 -27 -127 -52 8 -220 -12 -305 -37 -40 -12 -90 -26
-112 -33 -112 -32 -273 -136 -387 -250 -232 -232 -343 -531 -308 -833 10 -93
19 -130 61 -250 46 -131 149 -287 284 -430 52 -56 95 -108 95 -117 0 -8 -20
-55 -44 -103 -93 -185 -129 -337 -128 -543 0 -150 11 -221 54 -345 21 -61 85
-196 97 -205 4 -3 21 -28 39 -55 49 -79 202 -225 287 -275 183 -107 265 -142
415 -180 168 -41 203 -45 410 -44 179 1 224 4 350 28 224 43 590 167 752 256
65 35 94 30 103 -18 36 -185 189 -420 338 -520 114 -77 179 -110 263 -137 194
-62 353 -77 549 -50 114 15 290 58 350 84 11 5 38 15 60 24 95 36 144 57 200
88 33 17 78 41 99 51 90 46 270 178 426 315 219 191 383 376 560 630 31 45 57
73 69 73 11 0 58 -54 132 -152 62 -84 118 -158 124 -164 6 -6 34 -40 63 -75
53 -65 226 -239 317 -318 176 -154 326 -261 485 -344 307 -160 620 -239 884
-223 60 4 130 11 155 17 256 61 422 152 555 304 84 97 165 247 194 360 22 89
34 92 157 34 49 -23 99 -46 110 -50 174 -69 297 -113 390 -138 44 -12 94 -26
110 -31 17 -5 80 -17 140 -26 127 -19 505 -23 583 -5 136 31 228 54 237 60 6
4 30 13 55 20 53 16 240 111 240 122 0 5 5 9 12 9 14 0 110 72 166 124 50 47
132 154 186 242 74 122 136 346 136 492 -1 185 -55 412 -136 572 -24 47 -44
91 -44 98 0 7 42 57 93 111 50 53 105 117 121 142 17 24 38 53 47 64 41 49
100 168 139 285 23 67 34 125 40 197 21 276 -40 491 -199 711 -114 156 -339
325 -491 368 -25 7 -77 22 -117 33 -80 23 -215 41 -312 41 l-63 0 5 30 c4 16
31 81 61 143 29 63 57 125 61 138 4 13 11 29 15 34 10 13 84 198 98 245 6 19
22 66 36 104 14 38 26 77 26 88 0 10 4 26 9 36 12 22 48 147 55 187 2 17 12
62 21 100 23 95 43 205 54 290 5 39 11 77 15 85 10 27 36 403 36 525 0 139
-26 507 -40 580 -15 73 -40 108 -96 135 -47 22 -53 22 -162 11 -131 -13 -223
-31 -342 -67 -217 -66 -413 -146 -546 -224 -97 -56 -303 -211 -359 -269 -38
-40 -67 -51 -80 -31 -3 6 -10 31 -15 58 -11 61 -34 161 -55 237 -10 33 -21 74
-25 90 -11 38 -58 174 -70 200 -5 11 -18 44 -30 72 -47 124 -179 356 -279 493
-158 216 -410 467 -570 570 -66 41 -133 47 -196 15 -65 -33 -79 -69 -86 -220
-5 -115 -9 -139 -38 -211 -48 -122 -147 -248 -402 -509 -202 -207 -282 -297
-374 -420 -126 -168 -230 -399 -257 -573 -17 -106 -26 -108 -146 -29 -131 87
-286 166 -359 183 -15 4 -68 19 -118 34 -122 38 -265 54 -405 46 -136 -7 -235
-20 -270 -34 -14 -5 -61 -20 -105 -32 -118 -33 -276 -107 -390 -183 -138 -93
-142 -92 -170 43 -61 290 -203 529 -492 830 -76 80 -170 177 -209 215 -121
123 -170 178 -229 260 -106 149 -125 202 -134 387 -5 116 -9 141 -27 165 -39
53 -127 82 -193 62z m-52 -574 c11 -31 31 -70 92 -175 53 -92 146 -199 378
-435 320 -325 382 -406 488 -643 47 -107 73 -250 73 -407 l0 -143 -42 -53
c-65 -82 -163 -237 -233 -369 -21 -39 -50 -36 -111 11 -78 60 -224 217 -284
305 -182 266 -286 586 -323 986 -17 178 -31 214 -98 248 -72 37 -166 15 -211
-49 -27 -38 -28 -44 -28 -162 0 -154 35 -379 87 -564 14 -49 26 -94 27 -100 4
-18 27 -90 36 -110 5 -11 18 -42 29 -70 58 -150 212 -408 305 -510 25 -27 46
-55 46 -62 0 -21 -32 -30 -130 -38 -115 -8 -255 -43 -345 -84 -36 -17 -69 -31
-72 -31 -3 0 -43 -25 -89 -55 -182 -120 -349 -326 -394 -485 -6 -25 -18 -63
-25 -85 -55 -171 -52 -480 6 -732 19 -79 60 -216 79 -258 75 -173 99 -222 137
-290 51 -89 131 -208 179 -264 74 -87 143 -186 135 -194 -24 -24 -252 169
-397 338 -319 371 -563 861 -714 1430 -43 162 -47 179 -65 265 -9 41 -21 95
-27 120 -5 25 -14 72 -18 105 -5 33 -20 141 -34 239 -14 99 -26 207 -26 242 0
108 -19 216 -45 256 -28 42 -105 74 -158 64 -46 -9 -94 -41 -117 -78 -35 -58
-26 -276 27 -643 38 -260 49 -317 98 -515 46 -186 58 -227 104 -369 53 -159
53 -182 4 -143 -41 32 -270 438 -323 572 -10 25 -30 72 -45 105 -15 32 -36 82
-46 110 -68 189 -111 316 -118 350 -5 22 -20 83 -34 135 -13 52 -30 122 -36
155 -6 33 -20 109 -31 169 -11 59 -20 125 -20 145 0 21 -4 62 -9 92 -13 76
-22 461 -13 604 l7 120 27 3 c33 4 169 -28 289 -69 209 -69 361 -149 504 -264
205 -164 286 -262 430 -520 42 -75 85 -105 155 -105 47 0 64 5 97 29 63 46 73
88 73 310 0 186 7 246 55 478 45 217 140 462 263 676 22 38 162 248 172 257 3
3 28 32 56 65 62 73 120 132 143 144 21 12 43 -7 60 -54z m4748 23 c100 -93
282 -347 373 -521 48 -92 129 -293 168 -417 62 -195 101 -453 105 -700 3 -190
12 -219 79 -263 32 -20 54 -27 93 -27 75 0 112 30 165 132 104 202 237 362
410 493 129 97 178 125 355 204 156 70 289 111 410 127 72 9 70 17 72 -293 1
-153 -3 -309 -7 -348 -5 -38 -14 -117 -20 -175 -6 -58 -15 -123 -20 -145 -5
-22 -19 -92 -30 -155 -25 -133 -79 -338 -122 -460 -63 -178 -112 -307 -140
-362 -15 -31 -28 -59 -28 -62 0 -6 -65 -137 -107 -216 -127 -235 -206 -360
-231 -360 -23 0 -22 23 6 107 16 48 41 126 55 173 14 47 33 108 41 137 9 28
16 59 16 69 0 9 7 37 15 63 23 75 45 169 45 195 0 13 6 51 14 83 31 130 60
333 82 585 19 207 15 241 -32 297 -13 16 -45 37 -70 47 -40 15 -53 16 -93 5
-103 -27 -127 -68 -136 -232 -8 -154 -49 -466 -80 -624 -45 -222 -56 -266
-128 -520 -34 -120 -117 -363 -143 -420 -7 -16 -23 -55 -34 -85 -64 -165 -210
-425 -345 -615 -130 -183 -251 -320 -385 -437 -161 -139 -196 -126 -73 27 149
185 243 341 345 575 59 134 111 352 129 543 14 150 0 339 -33 452 -11 39 -25
86 -30 105 -49 168 -192 347 -380 477 -41 29 -99 62 -129 73 -30 12 -58 25
-64 29 -38 27 -211 68 -325 77 -95 8 -130 17 -130 36 1 7 32 51 70 98 60 74
133 186 209 323 31 55 115 261 135 332 10 33 21 71 26 85 36 110 85 393 96
558 8 99 -3 145 -43 193 -51 60 -129 74 -203 37 -64 -33 -86 -82 -94 -206 -32
-515 -220 -966 -518 -1247 -113 -107 -156 -137 -177 -125 -10 5 -34 42 -54 82
-46 91 -146 246 -201 312 l-41 50 -2 150 c-1 83 2 169 8 191 5 22 14 64 20 92
5 29 16 65 24 80 8 16 15 31 15 35 0 12 53 120 85 173 72 121 174 244 335 406
360 364 440 462 527 648 38 82 50 101 64 101 5 0 30 -19 56 -42z m-2227 -1513
c25 -7 74 -21 110 -31 99 -27 243 -98 369 -181 153 -101 312 -260 460 -462 54
-73 162 -293 202 -411 37 -111 51 -137 91 -169 45 -36 108 -39 198 -8 171 56
232 68 420 83 148 11 352 -40 485 -120 57 -34 50 -29 140 -116 77 -74 112
-138 147 -270 19 -72 22 -111 23 -250 0 -96 -5 -186 -13 -215 -6 -27 -14 -61
-16 -75 -8 -48 -36 -145 -57 -200 -11 -30 -25 -67 -31 -83 -22 -60 -123 -244
-180 -329 -119 -178 -340 -403 -557 -566 -139 -105 -448 -279 -664 -375 -46
-21 -87 -22 -87 -3 0 12 180 186 201 194 18 7 254 269 347 386 147 183 200
257 327 456 87 136 83 130 173 301 81 153 90 185 68 243 -45 118 -188 152
-274 67 -15 -16 -47 -66 -70 -112 -89 -178 -264 -454 -381 -602 -211 -267
-300 -369 -435 -500 -252 -243 -680 -547 -718 -509 -13 13 -2 38 46 117 62 99
156 304 208 450 62 174 138 464 138 525 0 14 6 54 14 90 25 112 39 296 41 530
2 286 -19 507 -76 790 -11 52 -24 120 -30 150 -29 141 -77 200 -171 207 -45 3
-60 -1 -100 -27 -83 -53 -93 -113 -50 -300 18 -78 44 -227 73 -425 16 -109 16
-612 0 -745 -19 -156 -64 -395 -92 -485 -5 -16 -18 -59 -28 -95 -85 -281 -252
-599 -415 -788 -11 -12 -27 -22 -37 -22 -19 0 -125 130 -188 233 -49 79 -174
320 -184 352 -3 11 -15 45 -27 75 -98 254 -156 532 -180 866 -14 189 -12 317
5 519 19 221 22 239 91 580 19 96 17 133 -9 180 -48 86 -168 110 -245 48 -41
-33 -56 -71 -92 -230 -136 -603 -123 -1278 37 -1843 9 -30 19 -64 23 -75 5
-11 16 -45 25 -75 39 -127 173 -419 234 -508 44 -66 53 -102 23 -102 -55 0
-384 226 -587 404 -232 202 -498 513 -704 821 -96 144 -122 189 -246 420 -46
86 -68 111 -113 126 -83 27 -177 -13 -211 -90 -27 -64 -20 -98 58 -251 227
-449 615 -957 959 -1252 50 -44 92 -86 92 -94 0 -19 -40 -18 -87 2 -99 43
-288 140 -378 194 -55 33 -117 69 -138 80 -161 88 -443 340 -615 548 -159 194
-302 483 -360 733 -21 87 -34 273 -28 374 14 201 67 332 178 441 40 40 96 87
123 105 57 39 175 90 250 109 74 19 279 24 376 10 159 -23 174 -27 270 -63
110 -42 157 -46 205 -16 45 27 68 62 88 134 37 125 87 241 166 380 75 133 281
366 408 463 85 64 170 122 179 122 3 0 27 13 52 28 113 69 316 138 446 152 89
10 247 2 305 -15z m-4644 -2185 c164 -37 210 -62 271 -147 58 -83 103 -143
149 -198 20 -25 34 -53 34 -69 l0 -27 -75 7 c-142 12 -458 -38 -665 -106 -164
-54 -251 -119 -266 -197 -14 -75 51 -169 135 -194 43 -13 56 -10 156 37 141
67 421 119 630 117 161 -1 264 -17 460 -76 83 -24 85 -25 183 -114 69 -63 117
-103 236 -196 36 -28 48 -65 24 -71 -307 -82 -344 -94 -476 -156 -173 -83
-321 -189 -488 -353 -122 -118 -158 -178 -159 -257 0 -107 64 -166 171 -158
65 4 97 22 133 73 103 146 393 358 588 431 187 70 444 114 588 99 28 -2 83 -7
124 -10 79 -7 106 -17 301 -120 58 -30 108 -55 112 -55 4 0 60 -25 125 -56
189 -89 297 -134 320 -134 26 0 103 -40 103 -54 0 -16 -6 -21 -125 -98 -46
-30 -125 -97 -186 -158 -157 -157 -187 -233 -128 -328 30 -51 74 -72 148 -72
71 0 72 1 192 142 148 173 410 300 677 327 129 14 204 8 349 -25 35 -8 156
-21 270 -30 233 -17 256 -22 261 -48 8 -38 -232 -356 -402 -534 -67 -71 -266
-247 -341 -302 -75 -55 -242 -158 -326 -200 -61 -31 -83 -40 -249 -96 -165
-55 -400 -68 -550 -29 -180 47 -334 164 -403 309 -42 86 -70 229 -66 336 4
116 1 127 -36 169 -42 47 -109 68 -163 52 -19 -6 -93 -44 -165 -85 -114 -64
-218 -116 -380 -190 -47 -22 -232 -81 -312 -101 -194 -47 -260 -55 -473 -55
-190 0 -218 2 -308 25 -150 38 -324 126 -412 209 -85 80 -177 232 -206 341
-61 236 -10 472 164 749 43 69 50 86 50 130 -1 71 -23 106 -110 172 -197 148
-330 326 -379 504 -66 238 15 508 206 683 25 23 52 48 59 55 32 31 178 96 274
122 125 33 237 36 356 10z m9188 4 c34 -8 79 -20 101 -25 22 -6 78 -29 125
-52 69 -34 103 -60 181 -137 79 -79 103 -110 137 -180 44 -91 58 -141 72 -260
19 -159 -47 -348 -179 -514 -52 -66 -135 -146 -191 -186 -19 -13 -59 -48 -89
-77 l-53 -52 4 -63 c4 -55 11 -74 62 -158 127 -206 171 -348 170 -540 -1 -167
-34 -273 -127 -410 -109 -158 -295 -276 -524 -330 -110 -26 -450 -29 -583 -4
-122 22 -383 94 -460 127 -136 57 -334 155 -440 216 -127 74 -163 86 -223 70
-89 -22 -132 -98 -120 -210 8 -76 -13 -219 -44 -302 -30 -80 -98 -175 -163
-226 -60 -48 -177 -105 -260 -127 -94 -26 -338 -26 -440 0 -69 17 -98 26 -248
77 -67 23 -180 84 -357 192 -26 16 -123 89 -157 119 -14 13 -57 49 -96 81
-188 159 -572 625 -572 694 0 26 18 33 88 33 31 0 89 5 127 10 39 5 97 10 130
11 33 0 87 7 120 14 33 7 87 16 120 19 33 4 85 12 115 18 67 13 276 -6 364
-34 32 -10 63 -18 68 -18 5 0 38 -14 73 -30 35 -17 67 -30 70 -30 3 0 43 -24
88 -54 75 -50 133 -103 275 -253 l50 -53 67 0 c80 0 111 16 149 73 37 58 36
119 -4 179 -74 111 -236 260 -402 369 -21 13 -38 30 -38 37 0 13 50 38 105 53
54 14 158 56 270 108 61 29 133 62 160 74 51 22 160 77 252 128 88 49 166 62
368 62 167 -1 189 -3 315 -33 74 -18 162 -44 195 -59 97 -43 227 -112 270
-142 22 -16 64 -45 93 -65 29 -20 103 -90 165 -156 62 -66 124 -126 139 -134
34 -17 125 -18 157 0 13 7 36 32 52 56 65 97 30 182 -150 360 -116 115 -134
130 -286 233 -133 90 -272 157 -399 192 -195 55 -233 65 -253 65 -23 0 -28 14
-17 44 3 8 31 34 62 57 31 24 67 52 81 64 55 46 194 167 207 179 27 27 246 89
372 106 105 14 325 14 422 -1 145 -22 319 -67 395 -103 113 -54 128 -56 192
-26 52 23 103 97 103 147 0 44 -36 119 -69 142 -83 59 -247 113 -496 165 -102
21 -205 31 -330 31 -107 0 -110 1 -113 23 -3 16 17 49 65 110 37 48 92 119
121 159 34 46 64 76 85 84 185 73 357 95 481 63z"/>
</g>
</svg>
