<?xml version="1.0" standalone="no"?>
<!DOCTYPE svg PUBLIC "-//W3C//DTD SVG 20010904//EN"
 "http://www.w3.org/TR/2001/REC-SVG-20010904/DTD/svg10.dtd">
<svg version="1.0" xmlns="http://www.w3.org/2000/svg"
 width="1040.000000pt" height="960.000000pt" viewBox="0 0 1040.000000 960.000000"
 preserveAspectRatio="xMidYMid meet">

<g transform="translate(0.000000,960.000000) scale(0.100000,-0.100000)"
fill="#71823e" stroke="none">
<path d="M3604 8851 c-138 -93 -322 -287 -447 -474 -123 -183 -232 -440 -271
-642 -25 -127 -25 -125 -47 -125 -12 0 -45 21 -73 48 -151 137 -331 237 -561
313 -185 61 -375 90 -423 65 -64 -34 -72 -53 -87 -207 -17 -172 -19 -434 -4
-567 42 -386 141 -751 284 -1051 31 -65 55 -127 53 -137 -3 -16 -16 -20 -98
-26 -88 -6 -219 -37 -301 -71 -66 -27 -176 -105 -240 -169 -195 -197 -266
-490 -179 -747 40 -121 153 -291 247 -374 42 -37 41 -57 -2 -149 -19 -41 -47
-121 -61 -178 -23 -92 -25 -120 -21 -225 3 -100 9 -136 36 -214 78 -234 253
-404 514 -501 178 -66 430 -80 657 -36 174 33 352 93 511 170 l74 36 18 -21
c9 -12 17 -28 17 -37 0 -54 72 -187 145 -269 241 -270 653 -305 1101 -94 278
132 604 426 802 724 25 37 50 67 57 67 19 0 39 -21 95 -100 161 -226 387 -448
593 -586 166 -111 390 -201 570 -230 163 -26 347 -7 482 50 61 26 177 101 205
133 96 109 148 199 173 300 15 59 37 66 106 29 68 -35 323 -130 404 -150 207
-52 457 -62 619 -26 388 85 625 309 693 652 15 75 16 101 6 198 -12 115 -50
249 -95 339 -15 28 -26 57 -26 65 0 8 30 46 66 83 183 188 263 383 251 613
-19 388 -334 689 -749 717 -68 4 -101 10 -105 19 -3 7 20 67 51 134 31 66 56
122 56 125 0 3 9 24 19 48 24 52 92 257 119 357 31 114 71 328 87 469 28 238
14 704 -23 781 -24 50 -73 72 -142 65 -212 -22 -457 -98 -640 -197 -87 -48
-205 -133 -271 -196 -72 -68 -78 -62 -121 109 -95 378 -245 651 -500 909 -84
85 -197 180 -245 204 -63 32 -140 11 -164 -45 -6 -16 -11 -62 -11 -103 0 -168
-59 -264 -343 -556 -185 -190 -283 -313 -344 -430 -43 -83 -91 -217 -91 -255
0 -42 -18 -75 -41 -75 -11 0 -52 20 -90 45 -38 25 -96 58 -127 74 -71 36 -234
87 -322 101 -236 37 -517 -32 -743 -183 -38 -25 -75 -43 -83 -40 -8 3 -17 17
-20 32 -22 102 -40 157 -75 240 -65 151 -156 274 -354 476 -304 311 -355 390
-355 556 0 128 -33 179 -116 179 -32 0 -56 -9 -100 -39z m51 -437 c62 -125 94
-164 309 -384 255 -259 334 -373 385 -550 27 -95 39 -294 19 -327 -7 -12 -47
-73 -89 -135 -42 -62 -82 -128 -89 -146 -22 -57 -44 -59 -106 -11 -97 75 -201
200 -262 314 -28 53 -85 201 -116 300 -30 96 -42 163 -57 315 -6 63 -17 126
-24 140 -36 70 -148 76 -192 11 -19 -28 -23 -47 -23 -110 1 -212 70 -504 166
-701 49 -101 120 -217 160 -262 46 -51 57 -74 41 -86 -6 -5 -52 -15 -102 -22
-220 -30 -398 -126 -521 -283 -69 -88 -95 -143 -128 -271 -50 -192 -27 -456
61 -691 57 -153 139 -294 260 -448 65 -83 70 -92 53 -102 -8 -5 -62 25 -80 45
-3 3 -38 34 -77 69 -83 72 -191 203 -281 339 -204 308 -349 698 -431 1152 -38
216 -40 232 -51 384 -5 71 -15 144 -21 163 -13 41 -52 63 -113 63 -36 0 -50
-6 -75 -31 -31 -30 -31 -32 -31 -132 0 -97 18 -277 39 -397 5 -30 13 -71 16
-90 30 -178 68 -334 126 -514 62 -195 -35 -97 -171 172 -77 153 -129 273 -173
402 -105 305 -158 626 -156 950 1 102 4 196 8 210 10 36 52 37 164 5 330 -95
566 -272 720 -540 62 -108 84 -128 141 -127 85 2 121 52 118 162 -5 137 28
391 69 535 10 35 74 198 110 280 45 102 187 308 282 408 54 58 67 52 122 -59z
m3456 38 c274 -296 439 -738 439 -1178 0 -134 36 -189 121 -186 58 3 74 15
115 90 91 163 185 274 317 372 139 104 396 215 524 227 73 7 68 14 77 -137 18
-314 -52 -757 -173 -1086 -98 -269 -318 -681 -347 -651 -11 11 -4 47 30 162
99 326 149 595 171 921 10 143 -25 198 -123 196 -39 0 -51 -5 -74 -31 -33 -37
-32 -33 -52 -246 -68 -746 -336 -1401 -734 -1792 -99 -97 -164 -148 -176 -136
-8 8 12 41 54 93 107 131 235 359 275 490 53 174 67 259 67 415 0 254 -71 439
-222 579 -137 126 -284 188 -502 211 -53 6 -58 9 -58 31 0 13 15 41 33 61 90
103 196 298 252 468 55 166 106 477 91 557 -19 105 -134 140 -206 62 -19 -20
-24 -40 -32 -131 -22 -282 -98 -515 -235 -728 -45 -70 -183 -216 -236 -250
-34 -22 -48 -12 -83 57 -26 51 -94 157 -146 226 -33 43 -33 44 -31 156 1 133
24 228 82 345 57 113 124 195 324 402 194 202 274 300 321 399 18 36 35 71 39
78 16 25 46 11 98 -46z m-1620 -1073 c178 -45 344 -144 486 -290 154 -159 244
-301 309 -488 51 -147 88 -169 218 -128 123 38 166 47 278 53 129 8 222 -11
333 -65 189 -92 268 -234 269 -481 1 -234 -71 -448 -228 -680 -59 -88 -293
-326 -383 -390 -153 -109 -485 -290 -532 -290 -36 0 -23 28 37 82 156 143 288
289 432 483 138 186 298 460 315 541 10 48 -17 102 -59 119 -88 37 -129 14
-195 -109 -170 -318 -422 -650 -641 -846 -149 -133 -416 -320 -455 -320 -25 0
-17 39 19 99 36 59 126 246 126 262 0 5 4 17 10 27 17 32 57 163 85 285 72
307 85 688 34 1022 -18 114 -59 297 -75 331 -36 75 -137 79 -193 8 -20 -25
-22 -37 -17 -89 3 -33 15 -100 26 -150 33 -147 50 -327 50 -530 0 -315 -33
-520 -127 -784 -56 -156 -235 -465 -285 -492 -27 -15 -54 12 -133 131 -221
330 -328 755 -312 1229 4 97 11 208 17 246 6 39 13 85 16 103 2 17 13 69 23
115 28 122 32 158 18 197 -31 88 -168 97 -211 12 -23 -45 -81 -345 -90 -472
-46 -587 55 -1097 296 -1492 19 -30 21 -39 10 -50 -10 -10 -25 -6 -79 22 -112
57 -355 248 -468 365 -232 242 -405 475 -542 732 -71 135 -98 163 -152 163
-78 0 -121 -40 -121 -114 0 -50 102 -253 205 -406 181 -270 274 -383 477 -580
65 -63 118 -121 118 -129 0 -54 -411 163 -596 315 -261 214 -434 455 -519 724
-44 138 -59 352 -34 472 41 190 216 346 432 383 122 20 314 -1 445 -51 83 -31
119 -27 161 22 17 19 31 41 31 49 0 32 64 189 112 271 87 153 244 322 385 417
226 150 457 200 674 146z m-3348 -1600 c34 -12 69 -25 78 -30 29 -15 191 -237
187 -256 -3 -16 -19 -19 -138 -25 -74 -4 -157 -12 -185 -18 -250 -56 -350 -95
-385 -153 -51 -83 6 -177 108 -177 21 0 42 4 47 9 21 20 197 72 296 87 108 17
355 13 416 -5 15 -5 61 -19 102 -32 62 -19 86 -33 145 -86 39 -35 99 -85 133
-111 34 -26 65 -53 68 -61 9 -22 -12 -38 -58 -45 -103 -17 -268 -79 -387 -147
-60 -34 -210 -153 -267 -211 -113 -117 -136 -175 -94 -244 36 -59 128 -70 175
-20 99 106 172 174 233 216 39 28 74 50 77 50 4 0 24 11 45 26 48 31 212 87
306 104 43 8 126 11 215 9 l146 -4 194 -97 c107 -53 238 -113 290 -133 139
-53 160 -63 160 -79 0 -8 -32 -36 -71 -61 -74 -50 -182 -152 -230 -218 -66
-91 -11 -197 102 -197 26 0 43 12 103 76 214 230 434 305 751 256 72 -11 168
-24 215 -28 47 -4 94 -8 105 -10 11 -1 34 -3 51 -3 61 -2 55 -29 -29 -146
-352 -487 -800 -767 -1187 -742 -141 9 -250 57 -332 145 -90 96 -117 189 -118
404 0 38 -44 86 -87 94 -42 8 -88 -6 -142 -43 -68 -47 -316 -161 -426 -196
-181 -58 -269 -72 -455 -72 -178 0 -234 9 -335 55 -138 62 -221 134 -289 250
-47 80 -69 164 -68 260 1 128 38 239 128 384 68 109 59 172 -35 240 -153 109
-254 251 -282 394 -55 283 145 558 444 612 75 13 208 3 280 -21z m6632 16
c196 -42 353 -176 414 -355 80 -232 -9 -438 -289 -671 -53 -44 -55 -48 -55
-95 0 -40 7 -61 41 -114 58 -91 99 -191 120 -288 15 -69 16 -95 7 -160 -32
-232 -174 -395 -416 -476 -178 -60 -489 -42 -737 42 -106 36 -309 131 -415
194 -86 51 -125 59 -174 34 -50 -26 -55 -40 -62 -174 -9 -165 -29 -220 -111
-307 -262 -280 -788 -172 -1225 252 -178 173 -370 416 -361 459 4 22 36 28
205 43 65 6 154 16 198 23 44 7 132 12 196 12 101 -2 127 -6 210 -34 135 -46
209 -93 318 -204 52 -53 105 -99 118 -102 99 -25 179 70 137 163 -24 51 -187
212 -256 251 -53 31 -74 54 -63 72 2 4 33 18 67 30 144 53 259 104 443 198
l130 67 165 3 c153 3 173 2 270 -23 225 -59 361 -143 548 -338 66 -68 104 -86
155 -73 61 15 95 85 74 153 -15 49 -155 195 -266 279 -112 83 -278 164 -411
199 -58 15 -112 30 -120 35 -29 14 -21 38 27 76 26 22 89 74 140 116 78 66
103 80 171 102 237 75 565 55 787 -48 63 -29 109 -24 151 18 27 27 34 42 34
73 0 53 -31 98 -87 126 -122 62 -368 117 -523 117 -142 0 -147 9 -67 109 29
36 65 85 82 109 64 95 258 143 430 107z"/>
<path d="M1984 2265 c-148 -36 -277 -158 -328 -310 -18 -56 -20 -90 -23 -490
-1 -263 2 -451 8 -485 40 -213 245 -390 452 -390 207 1 416 185 446 395 13 93
7 880 -7 938 -62 246 -309 401 -548 342z m196 -275 c40 -20 68 -54 89 -105 8
-22 12 -151 14 -450 l2 -420 -27 -52 c-38 -71 -92 -103 -174 -103 -51 0 -66 5
-101 30 -80 59 -78 47 -78 551 l0 445 25 38 c55 81 163 110 250 66z"/>
<path d="M7366 2264 c-156 -42 -279 -160 -326 -313 -19 -59 -20 -94 -20 -517
0 -434 1 -457 21 -516 29 -88 62 -140 126 -198 187 -171 425 -171 615 0 65 58
121 160 138 249 13 68 13 821 0 919 -34 259 -306 444 -554 376z m200 -273 c18
-11 44 -36 60 -57 28 -36 29 -39 37 -228 4 -105 6 -306 5 -446 l-3 -255 -27
-45 c-40 -69 -81 -94 -158 -98 -77 -4 -115 16 -165 86 l-30 44 -3 431 -3 432
23 45 c13 25 42 59 66 77 38 29 51 33 105 33 43 0 71 -6 93 -19z"/>
<path d="M8425 2265 c-148 -36 -279 -158 -327 -304 -20 -61 -24 -198 -8 -269
22 -95 84 -196 155 -255 25 -21 120 -81 211 -133 194 -111 219 -128 245 -170
35 -57 21 -147 -33 -215 -47 -59 -161 -78 -227 -38 -76 46 -95 82 -101 193
l-5 91 -124 3 c-93 2 -127 -1 -133 -10 -14 -22 1 -196 21 -249 61 -158 186
-271 343 -308 128 -30 268 8 382 103 139 116 196 327 135 502 -20 58 -35 80
-94 139 -60 60 -95 84 -238 160 -93 50 -186 105 -207 123 -112 95 -108 275 7
351 88 59 209 33 265 -56 20 -33 23 -53 27 -158 1 -66 7 -125 13 -132 7 -8 46
-11 126 -10 l117 2 3 135 c3 167 -14 232 -89 332 -110 148 -293 216 -464 173z"/>
<path d="M2766 2252 c-10 -17 -11 -1621 0 -1632 7 -7 55 -10 130 -8 l119 3 2
800 c2 440 1 810 -2 823 -5 21 -9 22 -125 22 -65 0 -121 -4 -124 -8z"/>
<path d="M3267 2254 c-4 -4 -7 -373 -7 -820 l0 -814 23 -5 c12 -3 69 -5 127
-3 l105 3 5 290 5 290 37 58 c21 31 44 57 53 57 20 0 34 -24 110 -195 36 -82
103 -229 148 -325 l82 -175 134 -3 c74 -1 138 1 142 5 4 4 -23 71 -59 148 -79
167 -150 319 -185 395 -14 30 -64 135 -111 234 -47 98 -86 188 -86 200 0 12
24 60 54 106 199 313 336 537 336 548 0 9 -33 12 -127 10 l-128 -3 -120 -182
c-66 -100 -147 -224 -180 -275 -42 -65 -67 -94 -82 -96 l-23 -3 -2 278 -3 278
-121 3 c-66 1 -123 -1 -127 -4z"/>
<path d="M4595 2248 c-3 -7 -14 -67 -26 -133 -11 -66 -29 -165 -39 -220 -10
-55 -28 -156 -39 -225 -12 -69 -28 -156 -36 -195 -7 -38 -19 -101 -25 -140 -7
-38 -21 -113 -31 -165 -10 -52 -21 -117 -24 -145 -4 -27 -13 -75 -20 -105 -7
-30 -19 -93 -25 -140 -7 -47 -16 -100 -21 -119 -4 -19 -6 -38 -3 -43 3 -4 59
-8 124 -8 138 0 133 -3 145 98 4 34 14 69 22 77 19 20 315 22 330 3 6 -7 16
-44 23 -83 8 -38 18 -76 23 -82 14 -19 236 -18 243 1 4 11 -72 469 -155 936
-11 58 -22 123 -25 145 -4 22 -13 76 -21 120 -8 44 -26 150 -40 235 -15 85
-30 165 -35 178 -9 22 -13 22 -175 22 -123 0 -167 -3 -170 -12z m190 -507 c17
-56 101 -688 93 -703 -7 -16 -24 -18 -119 -18 -93 0 -111 3 -116 17 -6 16 11
169 27 233 5 19 16 82 25 140 20 137 46 299 51 328 5 27 30 29 39 3z"/>
<path d="M5407 2253 c-4 -3 -7 -369 -7 -813 0 -613 3 -809 12 -818 16 -16 234
-17 244 0 8 13 6 1616 -2 1630 -6 9 -238 11 -247 1z"/>
<path d="M5909 1748 c-2 -653 1 -1120 7 -1130 6 -9 215 -11 238 -2 14 5 16 45
16 348 0 253 3 345 12 354 18 18 206 16 250 -2 43 -18 84 -60 110 -109 18 -36
19 -59 19 -307 -1 -217 2 -270 13 -279 9 -8 53 -11 132 -9 l119 3 0 295 c0
286 -1 297 -24 360 -13 36 -39 87 -57 115 -19 27 -34 54 -34 60 0 6 20 37 45
70 71 95 89 150 89 280 1 122 -9 162 -59 240 -45 70 -107 128 -177 165 -99 53
-145 59 -435 60 l-263 0 -1 -512z m592 213 c120 -82 117 -247 -5 -328 l-48
-33 -133 0 c-112 0 -134 2 -139 16 -3 9 -6 91 -6 183 0 120 4 171 13 180 9 9
48 11 148 9 124 -3 139 -5 170 -27z"/>
</g>
</svg>
