<?xml version="1.0" standalone="no"?>
<!DOCTYPE svg PUBLIC "-//W3C//DTD SVG 20010904//EN"
 "http://www.w3.org/TR/2001/REC-SVG-20010904/DTD/svg10.dtd">
<svg version="1.0" xmlns="http://www.w3.org/2000/svg"
 width="200pt" height="200pt" viewBox="0 0 1166.000000 846.000000"
 preserveAspectRatio="xMidYMid meet">

<g transform="translate(0.000000,846.000000) scale(0.100000,-0.100000)"
fill="#70743c" stroke="none">
<path d="M1986 8209 c-78 -21 -149 -60 -203 -112 -64 -61 -96 -113 -125 -199
-23 -67 -23 -75 -22 -513 0 -473 2 -494 50 -591 27 -54 107 -144 161 -182 50
-34 184 -77 242 -77 208 1 419 184 449 390 14 94 8 887 -8 945 -64 244 -316
401 -544 339z m208 -282 c24 -16 49 -46 64 -76 l24 -48 1 -422 2 -421 -27 -51
c-38 -73 -89 -104 -172 -104 -57 0 -68 3 -104 33 -79 62 -77 49 -80 527 -2
278 1 438 7 461 35 117 184 170 285 101z"/>
<path d="M7366 8209 c-118 -33 -243 -132 -294 -230 -50 -100 -52 -118 -52
-600 0 -421 1 -456 20 -511 29 -90 65 -147 127 -204 122 -112 277 -154 414
-114 80 24 127 50 196 111 70 61 126 159 143 251 13 69 13 806 0 908 -23 183
-155 338 -329 387 -57 16 -171 17 -225 2z m200 -274 c18 -11 44 -36 60 -57 28
-36 29 -40 37 -218 4 -99 6 -300 5 -446 l-3 -265 -27 -45 c-40 -69 -81 -94
-158 -98 -77 -4 -115 16 -165 86 l-30 44 -3 431 -3 432 23 45 c13 25 42 59 66
77 38 29 51 33 105 33 43 0 71 -6 93 -19z"/>
<path d="M8406 8209 c-119 -34 -230 -128 -287 -246 -29 -59 -34 -81 -37 -162
-5 -110 8 -180 51 -271 46 -96 118 -160 294 -259 210 -118 251 -147 273 -192
36 -70 22 -147 -39 -212 -39 -43 -74 -57 -137 -57 -49 0 -63 5 -100 32 -64 50
-78 79 -84 183 l-5 90 -119 3 c-70 2 -123 -1 -130 -8 -17 -13 -10 -167 9 -235
34 -119 141 -243 250 -290 109 -47 189 -55 288 -29 212 55 347 229 349 451 2
189 -82 302 -317 428 -71 38 -148 79 -170 91 -110 60 -154 127 -155 233 0 51
5 73 25 107 76 129 269 124 334 -8 18 -37 21 -62 21 -156 0 -96 2 -112 18
-119 9 -4 67 -8 127 -8 l110 0 3 137 c3 155 -13 222 -70 306 -120 175 -308
246 -502 191z"/>
<path d="M2766 8209 c-10 -16 -10 -1622 0 -1632 7 -7 56 -10 130 -8 l119 3 2
815 c1 616 -1 817 -10 822 -16 10 -234 10 -241 0z"/>
<path d="M3272 8209 c-10 -7 -12 -178 -10 -823 l3 -814 125 0 125 0 5 290 5
290 30 49 c58 94 75 88 130 -42 36 -85 103 -231 212 -462 30 -63 60 -118 66
-122 16 -10 264 -10 270 0 3 4 -48 120 -113 257 -65 138 -127 270 -139 295
-11 25 -59 125 -106 223 -47 99 -85 189 -85 201 0 12 24 60 54 106 101 159
266 424 307 493 16 26 29 52 29 58 0 6 -48 9 -127 7 l-128 -3 -120 -183 c-66
-100 -147 -224 -180 -275 -42 -64 -67 -93 -82 -95 l-23 -3 -2 278 -3 278 -115
3 c-63 1 -121 -2 -128 -6z"/>
<path d="M4590 8209 c-6 -14 -10 -36 -10 -50 0 -14 -9 -71 -20 -127 -20 -102
-95 -515 -130 -722 -10 -60 -26 -144 -34 -185 -8 -41 -28 -156 -45 -255 -17
-99 -35 -199 -40 -222 -6 -31 -5 -46 4 -53 8 -6 60 -10 125 -9 128 1 124 -2
135 102 10 86 11 87 189 87 111 0 156 -3 163 -12 6 -7 16 -44 23 -83 8 -38 18
-75 23 -82 11 -15 233 -17 242 -3 6 9 -3 64 -55 365 -58 333 -179 1033 -200
1165 -20 119 -5 110 -195 110 l-165 0 -10 -26z m194 -491 c4 -10 11 -47 16
-83 4 -36 22 -162 40 -280 17 -118 35 -240 40 -270 12 -87 8 -90 -121 -90 -94
0 -111 2 -116 17 -6 16 7 118 42 328 9 50 25 149 36 220 11 72 22 140 25 153
5 26 29 29 38 5z"/>
<path d="M5407 8209 c-4 -3 -7 -370 -7 -813 0 -634 3 -810 13 -818 16 -13 234
-15 242 -2 8 12 7 1619 -1 1631 -6 10 -237 12 -247 2z"/>
<path d="M5916 8209 c-9 -14 -10 -1617 -2 -1631 9 -14 209 -14 239 1 16 8 17
35 17 346 0 188 4 343 10 352 12 20 201 17 251 -4 44 -18 85 -59 111 -110 19
-37 20 -58 19 -306 -1 -218 1 -270 13 -279 9 -8 53 -11 132 -9 l119 3 0 295
c0 332 -2 342 -76 465 -46 76 -47 71 21 165 90 122 106 318 38 459 -30 61
-141 172 -204 204 -99 50 -150 57 -427 57 -141 0 -258 -4 -261 -8z m556 -277
c38 -15 94 -73 109 -112 27 -72 -5 -173 -74 -227 -39 -31 -40 -31 -179 -34
-109 -3 -143 -1 -149 10 -14 21 -11 352 3 366 18 18 246 16 290 -3z"/>
</g>
</svg>
