<?xml version="1.0" standalone="no"?>
<!DOCTYPE svg PUBLIC "-//W3C//DTD SVG 20010904//EN"
 "http://www.w3.org/TR/2001/REC-SVG-20010904/DTD/svg10.dtd">
<svg version="1.0" xmlns="http://www.w3.org/2000/svg"
 width="745.000000pt" height="177.000000pt" viewBox="0 0 745.000000 177.000000"
 preserveAspectRatio="xMidYMid meet">

<g transform="translate(0.000000,177.000000) scale(0.100000,-0.100000)"
fill="#71823e" stroke="none">
<path d="M399 1696 c-166 -46 -301 -196 -329 -366 -7 -43 -10 -215 -8 -500 4
-419 5 -437 26 -489 12 -30 34 -72 49 -93 31 -46 124 -133 162 -152 56 -30
157 -56 212 -56 149 0 311 97 389 233 58 101 62 146 58 633 -4 416 -5 442 -25
497 -66 184 -238 309 -422 306 -36 0 -87 -7 -112 -13z m214 -267 c36 -22 54
-43 73 -82 l24 -52 0 -420 c0 -388 -2 -423 -19 -461 -61 -134 -216 -166 -318
-65 -61 61 -63 81 -63 525 0 263 4 415 11 441 36 127 181 184 292 114z"/>
<path d="M5815 1705 c-5 -2 -34 -11 -64 -20 -130 -40 -247 -161 -288 -298 -14
-44 -16 -121 -16 -512 1 -446 1 -462 23 -524 77 -229 333 -364 551 -291 126
43 212 118 271 237 l43 86 3 460 c2 296 -1 478 -8 509 -24 114 -111 237 -207
294 -68 39 -158 64 -233 63 -36 0 -69 -2 -75 -4z m163 -264 c47 -24 77 -56 97
-103 13 -32 15 -101 15 -465 -1 -425 -1 -428 -23 -472 -14 -28 -41 -57 -71
-78 -85 -59 -188 -39 -259 49 -23 29 -31 51 -37 105 -11 97 -4 822 8 854 41
105 174 159 270 110z"/>
<path d="M6817 1689 c-74 -25 -121 -55 -183 -116 -144 -141 -171 -362 -69
-563 41 -80 116 -145 265 -230 204 -116 264 -158 293 -203 93 -143 -87 -342
-246 -273 -83 36 -126 113 -127 224 l0 73 -122 -3 -123 -3 1 -100 c1 -77 6
-113 23 -157 52 -134 178 -248 316 -284 135 -36 276 -2 394 96 182 153 213
445 64 610 -58 65 -123 109 -295 200 -165 87 -208 122 -238 191 -62 145 24
296 173 307 53 4 62 1 107 -29 78 -53 94 -91 98 -236 l4 -123 118 0 c109 0
119 2 125 20 10 31 -4 251 -20 305 -25 87 -110 196 -193 249 -103 65 -252 83
-365 45z"/>
<path d="M1186 1675 c-8 -21 -8 -1578 0 -1599 5 -13 25 -16 125 -16 l119 0 0
815 0 815 -119 0 c-97 0 -120 -3 -125 -15z"/>
<path d="M1689 933 c-1 -825 -1 -851 7 -864 3 -5 57 -9 120 -9 l114 0 0 277 0
276 31 56 c54 97 76 111 104 67 9 -14 51 -103 94 -198 117 -259 203 -441 219
-460 13 -15 33 -18 144 -18 70 0 128 2 128 5 0 2 -34 75 -76 162 -42 87 -102
214 -134 283 -32 69 -88 188 -125 265 -85 177 -115 244 -115 259 0 14 54 105
150 256 95 148 230 368 237 386 4 12 -14 14 -116 14 l-122 0 -119 -182 c-65
-101 -136 -210 -156 -243 -60 -94 -94 -135 -115 -135 -24 0 -23 -13 -24 295
l0 260 -122 3 -123 3 -1 -758z"/>
<path d="M3016 1668 c-5 -20 -48 -261 -121 -673 -13 -71 -34 -193 -49 -270
-25 -139 -87 -489 -104 -595 -6 -30 -8 -58 -5 -62 2 -5 55 -8 118 -8 129 0
117 -8 134 99 6 36 15 69 20 74 14 14 342 11 351 -3 4 -7 10 -36 14 -65 12
-108 9 -105 141 -105 103 0 115 2 115 18 0 16 -21 143 -55 337 -9 50 -18 104
-21 120 -3 17 -18 104 -34 195 -91 529 -132 766 -148 855 l-18 100 -167 3
c-166 2 -167 2 -171 -20z m230 -704 c63 -429 69 -483 55 -497 -13 -13 -163
-20 -213 -11 -46 9 -48 -11 33 484 5 36 14 85 19 110 5 25 11 67 14 93 3 27
11 55 17 63 27 33 40 -11 75 -242z"/>
<path d="M3832 878 l3 -813 120 0 120 0 1 795 c0 437 -2 803 -4 813 -3 15 -17
17 -123 17 l-119 0 2 -812z"/>
<path d="M4337 1683 c-2 -5 -4 -365 -5 -802 -2 -581 1 -797 9 -807 8 -10 40
-14 120 -14 59 0 110 3 113 8 2 4 6 156 7 337 2 256 5 335 16 353 13 20 20 22
114 22 113 0 155 -13 207 -63 64 -61 66 -74 72 -377 l5 -275 120 0 120 0 0
300 c0 296 0 301 -24 355 -14 30 -37 73 -51 95 -40 60 -41 70 -15 107 96 132
119 202 113 343 -4 89 -8 108 -37 165 -57 113 -152 196 -273 236 -67 23 -83
24 -338 24 -148 0 -271 -3 -273 -7z m547 -257 c77 -32 136 -117 136 -195 0
-39 -44 -125 -76 -150 -54 -42 -90 -51 -215 -51 -156 0 -149 -9 -147 210 2
209 -5 200 153 200 76 0 127 -5 149 -14z"/>
</g>
</svg>
